PathFileType	4	(X/Y/Z)	C:/Users/beibeiliu/ov580/test_trc/User1\sequence.26_training_dense_left.trc
DataRate	CameraRate	NumFrames	NumMarkers	Units	OrigDataRate	OrigDataStartFrame	OrigNumFrames
120	120	19	19	mm	120	248	330
Frame#	Time	ThumbCMC			ThumbMCP			ThumbIP			ThumbTip			IndexMCP			IndexPIP			IndexTip			MiddleMCP			MiddlePIP			MiddleTip			RingMCP			RingPIP			RingTip			PinkyMCP			PinkyPIP			PinkyTip			BackHand1			BackHand2			BackHand3	
		X0	Y0	Z0	X1	Y1	Z1	X2	Y2	Z2	X3	Y3	Z3	X4	Y4	Z4	X5	Y5	Z5	X6	Y6	Z6	X7	Y7	Z7	X8	Y8	Z8	X9	Y9	Z9	X10	Y10	Z10	X11	Y11	Z11	X12	Y12	Z12	X13	Y13	Z13	X14	Y14	Z14	X15	Y15	Z15	X16	Y16	Z16	X17	Y17	Z17	X18	Y18	Z18	
247	2.05833	-108.474	-39.3804	45.6346	-102.257	-61.8758	15.4776	-116.565	-71.1195	-12.0416	-140.093	-81.962	-19.8029	-130.806	-16.093	-34.1049	-139.415	-18.0314	-57.3461	-148.382	-19.5415	-81.0645	-158.803	-18.5383	-38.2766	-163.058	-21.5139	-63.4938	-172.798	-22.1456	-93.4835	-173.576	-53.146	-26.4361	-161.51	-87.1423	-20.8964	-150.689	-84.751	11.9091	-185.626	-66.8322	-3.1491	-164.077	-84.1767	9.15199	-147.993	-70.3019	32.1416	-175.416	-17.9834	24.4352	-170.289	-15.7286	60.9683	-139.257	-9.91469	42.7402	
248	2.06667	-107.497	-34.8913	43.8576	-100.244	-57.8135	13.9048	-113.116	-71.4321	-9.26327	-140.311	-85.0953	-18.7824	-139.889	-20.1041	-32.4516	-146.715	-22.2903	-58.6934	-159.854	-26.8857	-81.5004	-167.687	-25.3965	-37.3227	-169.214	-28.3546	-66.4735	-177.838	-31.7914	-90.2954	-173.346	-59.2997	-25.3904	-155.517	-89.6291	-21.3436	-144.562	-87.7737	9.33353	-184.732	-72.8155	-0.808931	-162.211	-88.9943	12.0067	-147.37	-71.3442	37.7274	-176.503	-22.8619	23.4892	-172.674	-16.6947	60.6269	-143.268	-11.7924	40.0108	
249	2.075	-110.465	-28.3512	40.9756	-99.5374	-51.6592	11.8224	-113.645	-69.286	-12.4521	-134.03	-88.3827	-17.9265	-147.197	-22.7966	-37.0643	-153.021	-28.1746	-57.2694	-162.693	-34.736	-81.0539	-170.175	-32.8836	-36.9359	-175.503	-40.0427	-62.9332	-185.365	-46.1441	-90.4754	-172.852	-67.759	-23.6422	-149.935	-94.9475	-15.9811	-140.901	-83.9651	16.0735	-179.572	-81.3743	0.274841	-157.242	-94.8296	14.4759	-142.921	-75.2805	38.4598	-184.805	-28.8072	25.1621	-175.993	-22.856	60.5751	-147.217	-8.92063	39.1224	
250	2.08333	-117.466	-22.63	40.2598	-98.0276	-44.8963	10.9118	-109.76	-65.3195	-10.2511	-125.198	-85.8668	-14.0765	-147.884	-23.8612	-37.7095	-157.755	-35.1398	-57.1031	-167.909	-44.7033	-84.4474	-172.645	-42.5261	-41.849	-172.086	-49.9856	-65.2865	-180.692	-59.45	-88.5519	-165.172	-73.4839	-21.5468	-142.36	-97.3992	-10.2496	-133.752	-83.0063	17.6829	-172.597	-85.8646	2.79932	-147.227	-95.1863	17.8411	-136.336	-74.534	38.8706	-182.818	-32.9493	24.6488	-178.945	-25.9967	60.0718	-154.889	-11.1259	37.1792	
251	2.09167	-116.774	-12.6489	40.1136	-95.9237	-35.1867	13.0226	-103.702	-59.6521	-7.25771	-120.027	-82.948	-10.3555	-151.292	-30.3899	-39.8705	-155.584	-42.1484	-60.53	-161.569	-53.7014	-80.9493	-168.172	-48.8	-41.2326	-169.137	-61.0683	-62.6138	-172.696	-72.862	-88.2476	-155.515	-81.333	-20.1545	-127.289	-93.3566	-7.27238	-126.754	-76.2752	23.1666	-163.171	-88.7105	5.77189	-135.573	-93.81	18.9221	-129.686	-66.6908	40.7394	-182.594	-38.8772	21.9626	-181.938	-28.2471	59.4569	-162.898	-11.4582	33.5963	
252	2.1	-122.22	-8.59651	38.6918	-96.3759	-28.497	8.01062	-97.4923	-52.967	-6.82066	-109.139	-81.8702	-8.09792	-149.977	-31.6409	-38.3384	-153.803	-50.4241	-61.2452	-158.7	-64.032	-81.7182	-166.863	-56.3834	-41.2227	-163.103	-67.0851	-62.8176	-163.365	-84.3913	-91.1528	-147.678	-82.4786	-16.4792	-119.124	-90.2281	-4.33181	-119.963	-73.3007	25.6355	-152.708	-95.6441	8.93835	-126.012	-87.3466	21.6113	-126.107	-62.5417	39.3694	-180.024	-44.0249	24.3539	-182.304	-30.5227	57.9577	-164.425	-10.7019	31.2691	
253	2.10833	-122.327	-1.07846	37.5488	-98.0071	-22.3496	11.3868	-94.0179	-48.3427	-6.92812	-101.23	-79.2527	-7.26927	-151.367	-39.105	-39.3668	-149.167	-50.3222	-58.8025	-150.391	-66.3814	-79.7098	-162.198	-60.2969	-41.0787	-157.575	-71.569	-61.5723	-150.581	-92.5549	-85.3874	-138.342	-85.6687	-13.4567	-110.986	-87.306	2.44143	-117.135	-64.2871	29.1783	-144.903	-94.9339	9.75759	-118.859	-85.3357	23.2928	-119.329	-61.8391	41.9742	-180.072	-49.456	21.7387	-183.679	-35.3936	55.1469	-163.908	-11.5276	27.9783	
254	2.11667	-129.747	-1.34202	32.5114	-97.8174	-16.2964	9.68992	-92.3007	-41.2646	-4.26473	-98.4575	-74.3198	-4.27349	-147.843	-37.4572	-39.1196	-144.679	-53.7003	-60.2139	-141.124	-74.3173	-80.6727	-159.083	-63.6148	-35.265	-149.493	-78.2894	-60.3421	-133.363	-100.027	-84.6406	-134.267	-84.032	-11.5075	-102.269	-79.1597	4.41808	-113.51	-59.9705	30.0955	-138.183	-95.2642	12.9171	-112.889	-82.7296	22.0756	-118.522	-55.7613	40.7047	-176.951	-51.5003	21.7943	-181.262	-37.1941	55.153	-167.703	-12.9307	29.1134	
255	2.125	-135.647	-0.0617067	31.9281	-103.018	-9.62087	12.0215	-91.2018	-34.2794	-3.04718	-93.388	-66.6891	-1.35988	-146.474	-40.6614	-38.3526	-139.267	-60.6425	-59.4459	-131.744	-78.3004	-74.6549	-150.058	-65.3224	-38.9262	-139.05	-83.1296	-56.0534	-120.031	-102.323	-76.6947	-127.445	-80.9911	-11.3	-96.972	-76.4953	7.4981	-109.626	-53.3217	30.1133	-127.774	-92.5252	12.6406	-105.593	-81.564	26.4613	-116.621	-52.5191	44.2201	-173.861	-55.5333	22.1787	-183.029	-40.0862	54.1003	-173.098	-18.2928	28.7002	
256	2.13333	-142.186	4.90584	32.0915	-106.682	-4.30876	10.5616	-96.4193	-30.4882	-1.43155	-88.1867	-61.6581	-1.58372	-142.811	-41.5054	-38.4831	-131.099	-60.1829	-61.2582	-120.284	-80.5191	-74.5593	-145.398	-72.231	-33.5786	-130.773	-85.4775	-54.676	-111.624	-100.824	-73.3598	-119.137	-80.8728	-9.90211	-92.6688	-72.9335	6.66977	-107.234	-52.1604	29.0063	-123.584	-91.4256	16.1952	-102.231	-72.3376	25.0002	-115.151	-48.2764	41.2108	-171.774	-60.9403	22.1089	-186.139	-44.4541	52.3922	-177.156	-23.3924	26.3292	
257	2.14167	-148.285	6.52991	30.9349	-112.44	-1.17253	8.78241	-99.3223	-24.1165	0.0437666	-89.827	-53.3957	1.42472	-140.551	-44.8555	-42.7581	-126.436	-63.6031	-57.0759	-113.164	-79.0062	-69.4137	-140.974	-69.7932	-37.7728	-122.086	-87.2527	-55.2855	-103.526	-98.1429	-73.1504	-120.992	-80.3003	-7.6194	-90.9443	-69.3288	7.54431	-105.624	-46.3288	27.6809	-120.551	-87.9181	18.9936	-102.24	-66.813	30.4005	-118.124	-43.245	45.3609	-170.734	-63.2189	20.3921	-189.045	-48.5798	51.7022	-177.57	-28.0062	20.2117	
258	2.15	-156.096	4.01593	29.1695	-121.132	2.45594	13.3564	-98.8811	-19.3353	-3.17934	-90.0073	-46.8539	0.408661	-140.365	-44.8371	-40.2963	-125.268	-60.0417	-55.6053	-107.94	-74.2617	-68.52	-138.452	-72.702	-34.2863	-117.578	-81.7328	-55.2846	-95.5867	-98.2482	-69.4669	-115.211	-75.9145	-6.5962	-90.5448	-58.5146	9.26117	-112.041	-41.64	33.3623	-116.779	-82.3148	18.3914	-102.494	-60.2812	34.8397	-122.029	-41.4034	43.8263	-173.518	-66.1995	22.1721	-190.99	-49.7735	47.6238	-182.327	-28.9764	20.616	
259	2.15833	-162.609	4.23263	25.7171	-126.676	4.74004	9.71006	-106.26	-17.7831	-3.45536	-89.9467	-42.343	1.1058	-141.635	-44.6351	-39.4726	-124.584	-52.5279	-57.2049	-103.324	-66.5053	-68.6647	-136.751	-70.0073	-35.0551	-117.187	-77.9103	-50.3092	-89.337	-89.1686	-69.1987	-113.648	-73.4243	-3.92282	-92.7998	-55.351	11.1878	-116.449	-35.3725	31.7297	-120.612	-79.6648	19.2962	-105.088	-57.1865	36.5291	-130.704	-36.0803	42.59	-175.932	-69.3226	22.5293	-193.501	-53.3348	47.951	-188.753	-28.5067	16.0582	
260	2.16667	-170.908	1.42222	26.6714	-134.917	7.05449	9.68211	-112.525	-11.3654	-1.20969	-96.0728	-34.2162	3.69828	-140.579	-43.5466	-39.9549	-122.154	-52.0706	-51.3348	-98.3803	-59.6994	-65.9634	-135.648	-66.1562	-33.8055	-113.853	-72.275	-48.8277	-85.3267	-80.4889	-65.8126	-117.478	-66.2163	-4.13738	-95.3629	-46.1953	12.3734	-119.466	-32.6588	33.8337	-114.754	-73.0307	22.9922	-107.831	-50.7876	35.6425	-138.298	-31.9364	44.0256	-174.738	-70.7146	22.3782	-195.956	-58.7707	47.7875	-191.362	-35.693	19.1519	
261	2.175	-180.762	1.17499	30.7679	-142.99	9.20256	12.423	-118.597	-10.3379	0.653785	-100.967	-31.549	5.31516	-141.755	-35.3782	-40.3337	-117.96	-42.1404	-53.3791	-92.0508	-51.6201	-58.7063	-133.268	-62.5247	-33.0644	-107.925	-67.5597	-45.1554	-81.9678	-70.464	-55.7613	-117.115	-63.0004	0.495047	-98.6822	-39.9852	21.8326	-125.906	-27.0345	37.2106	-119.344	-69.861	24.0679	-113.199	-45.4902	40.2813	-143.84	-31.6245	45.8402	-173.308	-69.7886	18.5752	-197.551	-64.1702	45.273	-197.89	-33.4481	16.0845	
262	2.18333	-187.892	0.10479	31.8799	-152.02	7.67149	15.4083	-127.367	-1.64253	6.83817	-104.062	-28.2823	9.2665	-139.826	-33.9986	-34.5887	-114.665	-33.2464	-48.0441	-86.1778	-39.4434	-51.4951	-132.675	-56.0052	-27.6529	-105.604	-56.2661	-41.3854	-74.2313	-57.7118	-48.783	-115.805	-56.1484	4.77288	-104.295	-31.845	27.0781	-131.702	-22.5602	40.5035	-117.404	-64.9217	29.6253	-119.263	-38.6006	47.4244	-146.348	-26.9543	50.9566	-178.44	-66.9709	19.9915	-202.927	-65.4384	48.4095	-199.411	-38.4966	19.4756	
263	2.19167	-195.131	3.04412	33.3242	-156.852	13.7724	16.6316	-129.718	1.52627	8.33383	-110.462	-19.6172	13.3307	-141.359	-24.8398	-32.2629	-113.642	-24.9924	-41.1792	-88.203	-22.9987	-43.6055	-131.482	-49.2228	-24.2862	-101.281	-46.6334	-35.0218	-68.8742	-41.3561	-40.926	-119.095	-47.7115	5.70608	-107.338	-27.5594	29.591	-137.949	-18.6687	43.8875	-122.534	-58.9484	31.2186	-124.795	-33.1369	48.1125	-155.065	-25.8461	54.272	-175.934	-68.2207	21.9236	-203.688	-65.8028	48.5664	-201.715	-36.234	15.4023	
264	2.2	-200.233	-1.37251	36.2688	-166.574	16.2482	23.8932	-134.255	5.35733	11.187	-113.695	-10.6509	16.867	-142.346	-22.8101	-26.583	-119.631	-15.8266	-34.7168	-90.5444	-12.3794	-34.1226	-127.021	-44.3531	-20.4828	-102.618	-34.0368	-28.6549	-72.6978	-24.8809	-31.5684	-121.001	-44.9496	10.7477	-113.309	-17.9602	31.9327	-142.688	-14.8535	46.0097	-121.702	-52.4875	36.2936	-125.145	-29.7063	51.2557	-155.292	-23.7047	54.7699	-178.206	-63.8193	22.2724	-203.576	-65.9051	46.8439	-207.191	-39.3048	19.1925	
265	2.20833	-202.875	1.09126	32.7943	-171.098	16.5726	25.6159	-141.437	12.2402	15.3919	-118.872	-6.77211	19.9907	-147.098	-18.3972	-22.3664	-116.039	-9.7146	-30.2596	-91.9944	-4.09974	-26.5616	-131.557	-36.8389	-16.9917	-104.439	-29.1949	-20.1868	-73.6266	-15.6798	-21.9646	-121.161	-37.0977	12.5276	-115.458	-15.8964	37.8975	-144.394	-12.2946	49.9315	-124.546	-50.1184	37.3169	-131.437	-24.7712	55.055	-161.816	-22.6238	58.1242	-180.601	-65.409	24.2238	-205.604	-67.269	45.3943	-209.572	-37.2739	17.6772	
